<?xml version="1.0" standalone="no"?>
<!DOCTYPE svg PUBLIC "-//W3C//DTD SVG 20010904//EN"
 "http://www.w3.org/TR/2001/REC-SVG-20010904/DTD/svg10.dtd">
<svg version="1.0" xmlns="http://www.w3.org/2000/svg"
 width="881.000000pt" height="619.000000pt" viewBox="0 0 881.000000 619.000000"
 preserveAspectRatio="xMidYMid meet">

<g transform="translate(0.000000,619.000000) scale(0.100000,-0.100000)"
fill="#000000" stroke="none">
<path d="M4302 5022 c-11 -11 -23 -33 -26 -48 -58 -283 -47 -580 29 -773 80
-204 209 -332 425 -421 81 -33 210 -78 302 -104 56 -16 58 -18 72 -65 25 -86
46 -204 48 -280 l3 -74 -30 -8 c-16 -4 -56 -9 -87 -12 l-56 -5 5 54 c11 105
-49 196 -149 227 -29 9 -107 24 -173 32 -66 9 -199 32 -295 52 -152 32 -193
36 -315 37 -107 0 -151 -4 -185 -17 -54 -20 -80 -21 -80 -4 0 7 -13 29 -30 48
-43 53 -84 61 -292 57 -193 -3 -203 -6 -252 -72 -21 -27 -21 -38 -21 -511 0
-476 0 -484 21 -512 45 -60 73 -68 244 -68 138 0 159 2 190 21 55 32 76 72 83
160 4 42 9 79 11 81 2 3 47 -14 99 -36 322 -137 742 -181 1057 -111 216 48
594 206 689 287 105 89 108 251 6 329 -31 23 -50 29 -105 32 -37 2 -91 -1
-120 -7 -29 -6 -54 -10 -56 -8 -2 1 -10 52 -19 112 -9 61 -27 153 -40 205
l-24 95 34 85 c18 47 46 132 61 190 24 91 28 124 28 250 0 135 -2 150 -28 220
-50 132 -121 224 -242 316 -173 130 -464 240 -689 260 -64 6 -75 4 -93 -14z
m316 -183 c298 -83 514 -249 574 -441 26 -84 24 -233 -3 -352 -12 -50 -25 -97
-29 -105 -5 -9 -28 26 -69 108 -91 179 -242 405 -293 435 -36 22 -55 20 -83
-9 -37 -36 -31 -66 26 -141 28 -37 76 -106 106 -153 59 -94 173 -314 173 -336
0 -18 -168 39 -287 96 -218 105 -327 297 -348 614 -6 91 13 298 30 325 5 9 77
-6 203 -41z m-972 -1326 c-6 -55 -21 -263 -47 -623 -6 -91 -13 -171 -15 -177
-2 -10 -36 -13 -124 -13 l-120 0 0 435 0 435 156 0 157 0 -7 -57z m619 -49
c135 -27 242 -46 425 -74 128 -19 150 -30 150 -73 0 -67 -51 -82 -293 -82
-186 0 -189 0 -208 -24 -25 -30 -24 -62 1 -89 24 -26 36 -29 155 -42 235 -26
557 -4 775 52 174 45 207 50 230 38 27 -14 26 -60 -2 -95 -29 -37 -298 -162
-473 -218 -178 -58 -256 -70 -455 -69 -154 0 -207 4 -316 25 -143 28 -299 76
-421 132 l-78 36 2 37 c24 373 29 409 56 423 99 53 266 62 452 23z"/>
<path d="M3930 1795 l0 -125 -41 27 c-80 53 -217 31 -297 -48 -53 -52 -75
-104 -80 -190 -5 -93 14 -159 63 -217 86 -100 252 -125 333 -50 l22 21 0 -26
0 -27 85 0 85 0 0 380 0 380 -85 0 -85 0 0 -125z m-46 -236 c81 -64 73 -207
-15 -251 -41 -22 -78 -23 -124 -4 -49 21 -75 68 -75 138 0 53 3 60 38 98 36
37 43 40 94 40 41 0 62 -5 82 -21z"/>
<path d="M2688 1721 c-20 -4 -48 -15 -61 -24 -29 -19 -77 -78 -77 -95 0 -7 -4
-12 -10 -12 -6 0 -10 28 -10 65 l0 65 -80 0 -80 0 0 -280 0 -280 79 0 79 0 4
133 c3 96 8 140 20 162 36 66 113 115 183 115 l36 0 -3 78 c-3 86 -5 88 -80
73z"/>
<path d="M3068 1717 c-127 -36 -218 -154 -218 -283 0 -63 36 -150 81 -195 61
-61 111 -82 210 -87 98 -5 163 11 214 53 l30 24 -45 40 c-32 29 -51 39 -65 35
-113 -32 -188 -23 -230 28 -14 16 -25 34 -25 39 0 5 85 9 201 9 l202 0 -6 79
c-6 90 -23 134 -75 187 -66 68 -179 97 -274 71z m171 -172 c18 -18 30 -38 27
-44 -9 -14 -232 -15 -240 -2 -10 15 43 70 77 80 51 15 98 3 136 -34z"/>
<path d="M4433 1720 c-86 -18 -159 -74 -201 -154 -22 -42 -26 -64 -26 -131 -1
-70 3 -87 29 -133 53 -98 132 -144 256 -150 97 -5 163 11 213 51 l29 23 -44
42 c-32 31 -50 41 -64 36 -110 -32 -188 -23 -230 28 -14 16 -25 34 -25 39 0 5
89 10 198 11 l197 3 -1 75 c0 85 -21 135 -76 190 -60 61 -164 89 -255 70z
m140 -155 c27 -19 49 -53 42 -65 -8 -13 -232 -13 -239 -1 -10 15 43 70 77 80
38 11 93 5 120 -14z"/>
<path d="M5080 1721 c-77 -17 -149 -67 -193 -135 -31 -48 -32 -55 -32 -152 0
-98 1 -103 33 -150 67 -98 160 -139 295 -132 83 5 147 27 177 63 11 14 8 21
-26 56 -28 29 -44 38 -59 34 -70 -20 -127 -25 -166 -15 -44 12 -89 49 -89 75
0 13 26 15 195 15 l195 0 0 63 c0 120 -49 206 -143 251 -57 28 -133 39 -187
27z m102 -141 c37 -11 78 -51 78 -76 0 -11 -25 -14 -120 -14 -103 0 -120 2
-120 16 0 21 55 72 83 77 38 7 41 7 79 -3z"/>
<path d="M5815 1721 c-49 -13 -90 -38 -105 -65 -20 -38 -30 -32 -30 19 l0 45
-80 0 -80 0 0 -280 0 -280 80 0 80 0 0 160 c0 174 6 200 56 239 34 27 109 28
140 3 43 -34 48 -60 52 -234 l4 -168 79 0 79 0 0 161 c0 146 2 165 21 195 29
48 57 64 107 64 100 0 115 -33 120 -252 l4 -168 80 0 80 0 -4 193 c-3 174 -5
197 -26 242 -13 27 -30 58 -40 68 -58 65 -194 81 -276 33 -25 -15 -56 -42 -69
-60 l-23 -34 -32 39 c-54 64 -145 98 -217 80z"/>
</g>
</svg>
